<?xml version="1.0" encoding="UTF-8"?>

<svg xmlns="http://www.w3.org/2000/svg" viewBox="152 40 760 760" role="img" aria-label="Reflejo Cybersec logo">
  <title>Reflejo Cybersec</title>
  
  <path fill="#ffffff" d="M256.419586,549.063110 C256.589111,587.855286 256.765564,626.157593 256.918060,664.460022 C256.949493,672.355225 256.908325,672.365845 248.967209,672.368408 C224.139938,672.376526 199.312378,672.315369 174.485718,672.440674 C170.524384,672.460632 168.813141,671.386536 168.818054,667.101624 C168.935776,564.461365 168.530090,461.818237 169.221161,359.182373 C169.455032,324.446350 176.446030,290.673157 193.219467,259.652618 C213.831085,221.533813 245.530548,196.293549 285.827545,181.598328 C320.585663,168.922989 356.595825,164.882828 393.427582,167.556213 C423.592773,169.745712 452.651245,176.221741 479.890594,189.762589 C531.208130,215.272888 560.475464,257.144806 571.478516,312.754791 C575.639160,333.783081 576.658203,354.972931 576.438599,376.311096 C576.401733,379.893799 575.303040,381.362213 571.559387,381.347595 C545.565918,381.246094 519.571533,381.232971 493.578278,381.359253 C489.361481,381.379761 488.593628,379.369690 488.674988,375.805695 C489.093994,357.449249 488.133514,339.216492 483.685730,321.289307 C473.252991,279.239227 441.797150,250.634277 398.927734,244.250977 C376.252930,240.874680 353.715332,241.213211 331.686798,247.946320 C293.129303,259.731628 270.337555,286.157349 261.300537,325.063324 C257.887421,339.757355 257.098267,354.668091 256.886810,369.673370 C256.046417,429.305328 256.563354,488.940094 256.419586,549.063110 z"></path>
  
  <path fill="#ffffff" d="M616.573120,662.562256 C581.699951,652.366699 552.272705,634.419983 529.470520,606.338257 C510.326019,582.761230 499.649445,555.361633 493.781158,525.868164 C489.935333,506.539642 488.417877,487.012939 488.652008,467.313965 C488.699402,463.326904 489.831482,461.676941 494.070312,461.698700 C519.731323,461.830566 545.393921,461.825989 571.054810,461.670807 C575.290710,461.645203 576.326477,463.258850 576.464600,467.240997 C577.197632,488.376892 578.355713,509.476868 585.005371,529.823181 C596.546021,565.134827 620.720703,586.176636 656.892883,593.891602 C681.377136,599.113708 705.884949,599.145691 730.187378,593.499268 C770.986816,584.020081 794.601501,557.546204 803.615112,517.261414 C807.375732,500.453949 808.598206,483.380768 808.602722,466.199677 C808.627930,369.051819 808.645325,271.903961 808.665771,174.756088 C808.667419,166.900864 808.668518,166.874359 816.682190,166.872925 C841.010498,166.868530 865.339783,166.999695 889.666382,166.801804 C894.622253,166.761490 896.310303,168.193283 896.303528,173.306717 C896.169373,275.119843 896.537842,376.934967 895.994568,478.745422 C895.807495,513.808899 889.656921,548.009644 873.048889,579.556580 C852.399963,618.779358 820.440918,644.771545 778.842346,659.100159 C739.551880,672.633850 699.130005,674.996704 658.063721,670.539368 C644.126343,669.026611 630.432556,666.491577 616.573120,662.562256 z"></path>
  
  <path fill="#ffffff" d="M421.744385,453.666382 C407.402008,474.485657 383.144043,483.794556 358.443268,478.179108 C335.470490,472.956512 317.289154,452.433929 313.522095,428.116730 C307.855133,391.535309 337.536560,356.639557 377.796173,359.928009 C422.422485,363.573181 446.707855,412.930145 423.311310,451.275055 C422.878082,451.985077 422.403870,452.670135 421.744385,453.666382 z"></path>
  
  <path fill="#ffffff" d="M639.527710,447.345398 C621.329102,412.359375 641.739990,369.806610 679.098206,361.298523 C713.283752,353.512939 746.506409,376.217407 751.421753,411.107178 C756.518250,447.282776 729.908936,479.304230 693.412048,479.760773 C669.391174,480.061249 651.453125,468.674469 639.527710,447.345398 z"></path>
</svg>