<?xml version="1.0" encoding="UTF-8"?>

<svg id="reflejoiconv3-dark" xmlns="http://www.w3.org/2000/svg" viewBox="116 128 754 754" role="img" aria-label="Reflejo AI logo">
  <title>Reflejo AI</title>

  
  <path fill="#ffffff" d="M508.25,352.94c-16.59-39.29-65.78-44.6-103.14-44.84-25.46-.16-52.99,1.8-76.15,12.68-14.08,6.62-25.17,17.63-30.71,32.22-3.5,10.04-5.05,20.32-5.49,31.12v363.69s-50.55,0-50.55,0v-368.99c.52-13.15,1.98-25.87,5.66-38.31,17.76-64.95,93.9-75.15,151-75.62,19.06-.16,37.54.61,56.36,3.24,44.51,6.23,90.37,25.23,103.02,72.61,3.73,12.8,5.13,25.52,5.61,38.95l.02,69.06-49.33.02v-64.26c-.51-11.09-2.3-21.36-6.32-31.6Z"></path>
  <path fill="#ffffff" d="M695.65,521.16l-.08,68.71c-.02,14.08-2.1,27.39-5.93,40.76-7.87,27.47-27.41,46.53-53.18,57.73-22.39,9.73-47.25,13.97-71.63,15.62-20.33,1.38-40.29,1.35-60.61-.03-50.65-3.44-109.42-19.36-124.56-74.61-3.92-13.42-5.35-26.8-5.69-40.9l-.02-67.34,49.37-.02.03,64.45c.46,11.22,2.38,21.6,6.5,31.94,17.28,39.88,68.89,44.48,106.8,44.27,25.05-.13,52.61-2.44,75.04-14.1,13.03-6.78,23.03-17.62,28.13-31.36,3.48-10.39,4.97-20.65,5.31-31.7v-63.42s50.53-.01,50.53-.01Z"></path>
  <circle fill="#ffffff" cx="397.68" cy="421.2" r="48.37"></circle>
  <circle fill="#ffffff" cx="670.08" cy="421.2" r="48.37"></circle>
</svg>