<?xml version="1.0" encoding="UTF-8"?>
<svg xmlns="http://www.w3.org/2000/svg" viewBox="845 115 1498 783" role="img" aria-label="Reflejo wordmark">
  <title>Reflejo</title>
  <g transform="translate(845.00,640.75) scale(0.5227,-0.5227)">
    <path fill="#ffffff" transform="translate(0,0)" d="M52 0 159 450H266L155 0ZM65 425V450H254V425ZM203 195 241 358H248Q275 401 311.0 431.5Q347 462 384 462Q402 462 414.5 454.5Q427 447 434.0 435.0Q441 423 441 407Q441 387 428.5 370.0Q416 353 388 353Q365 353 355.5 363.5Q346 374 341.0 384.5Q336 395 326 395Q314 395 297.0 379.0Q280 363 261.5 335.0Q243 307 227.0 271.0Q211 235 203 195Z"></path>
    <path fill="#ffffff" transform="translate(385,0)" d="M240 -13Q178 -13 131.0 16.0Q84 45 58.5 91.5Q33 138 33 190Q33 241 56.5 289.5Q80 338 119.5 377.0Q159 416 209.0 439.0Q259 462 311 462Q353 462 385.0 447.0Q417 432 435.5 405.5Q454 379 454 344Q454 302 427.0 270.0Q400 238 353.0 220.5Q306 203 245 203Q222 203 197.0 205.0Q172 207 152.5 210.0Q133 213 126 214L131 239Q148 232 166.0 230.5Q184 229 204 229Q264 229 299.5 247.0Q335 265 350.5 294.0Q366 323 366 357Q366 397 349.0 414.5Q332 432 304 432Q267 432 238.5 404.5Q210 377 191.0 333.5Q172 290 162.5 241.0Q153 192 153 148Q153 81 176.0 49.0Q199 17 250 17Q291 17 337.0 42.0Q383 67 423 133L443 119Q411 61 361.0 24.0Q311 -13 240 -13Z"></path>
    <path fill="#ffffff" transform="translate(811,0)" d="M-82 -324Q-125 -324 -155.0 -303.0Q-185 -282 -185 -251Q-185 -230 -171.0 -216.5Q-157 -203 -136 -203Q-115 -203 -102.0 -216.0Q-89 -229 -89 -247Q-89 -254 -90.5 -261.5Q-92 -269 -92 -276Q-92 -284 -87.5 -289.0Q-83 -294 -68 -294Q-52 -294 -37.5 -286.5Q-23 -279 -10.0 -262.0Q3 -245 14.5 -215.0Q26 -185 35 -140L158 450Q180 555 223.5 625.0Q267 695 321.0 730.5Q375 766 427 766Q471 766 504.5 742.5Q538 719 538 681Q538 659 524.0 642.0Q510 625 484 625Q461 625 447.5 638.0Q434 651 434 669Q434 689 444.5 698.5Q455 708 455 718Q455 726 445.5 731.0Q436 736 420 736Q391 736 366.5 716.0Q342 696 320.5 647.0Q299 598 279 511L171 45Q145 -68 114.0 -140.0Q83 -212 50.0 -252.0Q17 -292 -16.5 -308.0Q-50 -324 -82 -324ZM59 425V450H319V425ZM365 -13Q328 -13 308.0 6.0Q288 25 288 56Q288 64 289.5 72.0Q291 80 292 87L446 732L561 764L397 97Q394 84 393.0 76.0Q392 68 392 63Q392 38 414 38Q440 38 468.5 67.0Q497 96 533 166L553 157Q533 115 506.0 76.0Q479 37 444.5 12.0Q410 -13 365 -13Z"></path>
    <path fill="#ffffff" transform="translate(1824, 0) scale(-1, 1)" d="M240 -13Q178 -13 131.0 16.0Q84 45 58.5 91.5Q33 138 33 190Q33 241 56.5 289.5Q80 338 119.5 377.0Q159 416 209.0 439.0Q259 462 311 462Q353 462 385.0 447.0Q417 432 435.5 405.5Q454 379 454 344Q454 302 427.0 270.0Q400 238 353.0 220.5Q306 203 245 203Q222 203 197.0 205.0Q172 207 152.5 210.0Q133 213 126 214L131 239Q148 232 166.0 230.5Q184 229 204 229Q264 229 299.5 247.0Q335 265 350.5 294.0Q366 323 366 357Q366 397 349.0 414.5Q332 432 304 432Q267 432 238.5 404.5Q210 377 191.0 333.5Q172 290 162.5 241.0Q153 192 153 148Q153 81 176.0 49.0Q199 17 250 17Q291 17 337.0 42.0Q383 67 423 133L443 119Q411 61 361.0 24.0Q311 -13 240 -13Z"></path>
    <path fill="#ffffff" transform="translate(1763,0)" d="M-67 -324Q-104 -324 -135.0 -304.5Q-166 -285 -166 -251Q-166 -228 -152.0 -215.5Q-138 -203 -117 -203Q-95 -203 -82.5 -216.0Q-70 -229 -70 -246Q-70 -253 -71.5 -262.5Q-73 -272 -73 -278Q-73 -294 -51 -294Q-45 -294 -36.5 -290.5Q-28 -287 -18.0 -274.0Q-8 -261 3.5 -232.0Q15 -203 25 -152L150 450H257L129 -134Q119 -180 98.5 -215.5Q78 -251 51.0 -275.0Q24 -299 -6.5 -311.5Q-37 -324 -67 -324ZM56 425V450H245V425ZM236 599Q208 599 188.5 618.5Q169 638 169 666Q169 695 188.5 714.5Q208 734 236 734Q265 734 284.5 714.5Q304 695 304 666Q304 638 284.5 618.5Q265 599 236 599Z"></path>
    <path fill="#ffffff" transform="translate(2014,0)" d="M211 -13Q156 -13 115.0 12.0Q74 37 51.0 79.5Q28 122 28 174Q28 227 51.5 278.5Q75 330 115.0 371.5Q155 413 206.0 437.5Q257 462 313 462Q368 462 409.0 438.0Q450 414 473.0 373.0Q496 332 496 280Q496 227 472.5 175.0Q449 123 409.0 80.5Q369 38 318.0 12.5Q267 -13 211 -13ZM213 12Q254 12 285.5 40.5Q317 69 338.5 114.5Q360 160 371.0 213.5Q382 267 382 317Q382 370 366.5 403.5Q351 437 308 437Q268 437 237.0 408.0Q206 379 184.5 332.5Q163 286 152.0 231.5Q141 177 141 127Q141 71 157.0 41.5Q173 12 213 12Z"></path>
  </g>
</svg>